# xmcd
#
# Track frame offsets:
#	179
#	16403
#	29157
#	41467
#	57156
#	70614
#	83861
#	98244
#	108182
#	125462
#
# Disc length: 1840 seconds
# Revision: 2
# Processed by: cddbd v1.5.2PL0 Copyright (c) Steve Scherf et al.
# Submitted via: dBpowerAMP V12.0
#
DISCID=7c072e0a
DTITLE=Johnny Cash - Complete Columbia Album Collection, Disc 44 [Last Gunfighter Ballad]
DYEAR=1977
DGENRE=Country
TTITLE0=I Will Dance with You
TTITLE1=The Last Gunfighter Ballad
TTITLE2=Far Side Banks of Jordan
TTITLE3=Ridin' on the Cotton Belt
TTITLE4=Give it Away
TTITLE5=You're So Close to Me
TTITLE6=City Jail
TTITLE7=Cindy, I Love You
TTITLE8=Ballad of Barbara
TTITLE9=That Silver Haired Daddy of Mine
EXTD=
EXTT0=
EXTT1=
EXTT2=
EXTT3=
EXTT4=
EXTT5=
EXTT6=
EXTT7=
EXTT8=
EXTT9=
PLAYORDER=
